<svg xmlns="http://www.w3.org/2000/svg" version="1.1" xmlns:xlink="http://www.w3.org/1999/xlink" xmlns:svgjs="http://svgjs.dev/svgjs" viewBox="0 0 800 800" opacity="0.76"><defs><linearGradient x1="50%" y1="0%" x2="50%" y2="100%" id="uundulate-grad"><stop stop-color="#ff7ecb" stop-opacity="1" offset="45%"></stop><stop stop-color="#6a00f4" stop-opacity="1" offset="100%"></stop></linearGradient></defs><g stroke-width="2" stroke="url(#uundulate-grad)" fill="none"><path d="M718.9059062476631 99.62726787755747C780.9269101512978 212.57528724941938 763.8254446243348 602.5575236877065 692.1555544376806 709.6429421436013C620.4856642510265 816.7283605994962 507.8970213147959 616.5521722031 374.8904333517246 613.637276465852C241.8838453886533 610.722380728604 99.18904716866103 744.2079621148546 53.723932214939225 695.6514426048116C8.258817261217473 647.0949230947687 119.77910996794822 478.82356264618966 156.65788157385975 380.56598281764695C193.53665317977135 282.3084029891045 181.2010246469867 268.4053789400955 230.74203592331492 224.0150594278075C280.2830471996432 179.6247399155194 292.7539293826627 193.40657239829977 394.45473570023523 167.49244915866456C496.15554201780765 141.57832591902934 656.8849023440289 -13.320751494304432 718.9059062476631 99.62726787755747C780.9269101512978 212.57528724941938 763.8254446243348 602.5575236877065 692.1555544376806 709.6429421436013 "></path><path d="M700.1467352919184 117.2961767236846C758.51944484828 223.60019495602523 742.4239478817267 590.642299839119 674.9699335884053 691.4285760329022C607.5159192950838 792.2148522266857 501.55013770804317 603.8137337359599 376.3674666839761 601.0703024538442C251.184795659909 598.3268711717284 116.88380909991628 723.9603595352582 74.09311267288399 678.2601058787473C31.302416245851703 632.5598522222363 136.2626917345395 474.18680709416185 170.97212383422095 381.7090849025924C205.68155593390247 289.23136271102294 194.07155260892864 276.1461636060734 240.6983867513552 234.367039359214C287.3252208937819 192.5879151123546 299.0625217719178 205.55905156673617 394.7809277178684 181.16928851766772C490.499333663819 156.77952546859933 641.7740257355566 10.992158491344014 700.1467352919184 117.2961767236846C758.51944484828 223.60019495602523 742.4239478817267 590.642299839119 674.9699335884053 691.4285760329022 "></path><path d="M681.3875643361735 134.96514660496803C736.1119795452626 234.62516369778734 721.0224511391189 578.7271370256876 657.78431273913 673.2142709573595C594.5461743391411 767.7014048890314 495.20325410129044 591.075356303976 377.8445000162276 588.5033894769925C260.48574593116473 585.931422650009 134.57857103117152 703.7128179908183 94.46229313082875 660.8688301878393C54.34601523048599 618.0248423848602 152.74627350113076 469.5501125772904 185.28636609458215 382.8522480226941C217.82645868803354 296.15438346809765 206.94208057087064 283.88700930720745 250.6547375793955 244.71908032577676C294.36739458792044 205.55115134434618 305.37111416117295 217.71159177032882 395.10711973550167 194.84618891182714C484.8431253098304 171.98078605332552 626.6631491270842 35.30512951214865 681.3875643361735 134.96514660496803C736.1119795452626 234.62516369778734 721.0224511391189 578.7271370256876 657.78431273913 673.2142709573595 "></path><path d="M662.6283933804285 152.63420803898578C713.7045142422451 245.65022399228377 699.6209543965109 566.8120657649907 640.5986918898546 655.0000574345512C581.5764293831983 743.1880491041117 488.8563704945377 578.3370704247267 379.3215333484791 575.9365680528754C269.78669620242044 573.5360656810241 152.27333296242676 683.4653679991127 114.83147358877352 643.4776460496655C77.38961421512028 603.4899241002184 169.2298552677221 464.91350961315334 199.60060835494335 383.99550269553004C229.9713614421646 303.07749577790673 219.8126085328126 291.6279465610759 260.61108840743583 255.07121284507394C301.4095682820591 218.51447912907201 311.67970655042814 229.86422352665585 395.43331175313483 208.52318085872093C479.18691695584164 187.18213819078608 611.552272518612 59.618192085687724 662.6283933804285 152.63420803898578C713.7045142422451 245.65022399228377 699.6209543965109 566.8120657649907 640.5986918898546 655.0000574345512 "></path><path d="M643.8692224246836 170.30314740269102C691.2970489392276 256.67516221646775 678.219457653903 554.8968724339813 623.4130710405793 636.7857218414304C568.6066844272556 718.6745712488794 482.509486887785 565.5986624751647 380.7985666807306 563.3696245584456C279.0876464736761 561.1405866417266 169.96809489368195 663.2177959370946 135.20065404671823 626.0863398411793C100.4332131997545 588.9548837452642 185.71343703431336 460.27678457870377 213.91485061530454 385.1386352980536C242.11626419629573 310.0004860174033 232.68313649475454 299.3687617446319 270.5674392354761 265.42322329405863C308.4517419761977 231.4776848434854 317.9882989396832 242.01673321267037 395.7595037707681 222.20005073530228C473.5307086018529 202.3833682579342 596.4413959101398 83.93113258891424 643.8692224246836 170.30314740269102C691.2970489392276 256.67516221646775 678.219457653903 554.8968724339813 623.4130710405793 636.7857218414304 "></path><path d="M625.1100514689388 187.97217831913065C668.8895836362101 267.7001919933861 656.8179609112951 542.9817706557064 606.2274501913039 618.571477801044C555.6369394713129 694.1611849463815 476.16260328103226 552.8603460783372 382.27560001298207 550.8027726167504C288.38859674493176 548.7451991551635 187.6628568249372 642.9703154278109 155.569834504663 608.6951251854277C123.47681218438879 574.4199349430444 202.19701880090463 455.6401510969886 228.22909287566574 386.28185945331154C254.26116695042685 316.9235678096344 245.55366445669648 307.1096684809222 280.52379006351646 275.7753252957777C315.4939156703364 244.44098211063317 324.2968913289384 254.16933445141933 396.0856957884014 235.877012164618C467.87450024786426 217.5846898778167 581.3305193016674 108.24416464487518 625.1100514689388 187.97217831913065C668.8895836362101 267.7001919933861 656.8179609112951 542.9817706557064 606.2274501913039 618.571477801044 "></path><path d="M606.3508652544049 205.64114820041402C646.4821030744035 278.72516073514817 635.416448909898 531.0666078422751 589.0418140832396 600.3571727255012C542.667179256581 669.6477376087272 469.8157044154906 540.1219686463533 383.7526180864445 538.2358596398988C297.6895317573984 536.349750633444 205.35760349740337 622.7227738833709 175.9389997038187 591.3038494945196C146.52039591023401 559.8849251056683 218.68058530870684 451.00345658011713 242.54331987723788 387.4250225734131C266.40605444576886 323.8465885667091 258.42417715984936 314.85051418205626 290.4801256327677 286.1273662623405C322.53607410568594 257.4042183426247 330.6054684594044 266.3218746550119 396.4118725472455 249.55391255877743C462.21827663508657 232.78595046254287 566.2196274344061 132.55713566567988 606.3508652544049 205.64114820041402C646.4821030744035 278.72516073514817 635.416448909898 531.0666078422751 589.0418140832396 600.3571727255012 "></path><path d="M587.5917095574489 223.3101180816974C624.0746530301751 289.7501294769103 614.0149674260792 519.1514450288439 571.8562084927532 582.1428676499584C529.6974495594275 645.134290271073 463.46883606752704 527.3835912143695 385.22966667748506 525.6689466630471C306.99049728744313 523.9543021117247 223.05238068744768 602.4752323389309 196.30819542055252 573.9125738036116C169.5640101536573 545.3499152682922 235.16418233408717 446.3667620632457 256.8575773963881 388.5681856935148C278.550972458689 330.7696093237838 271.29472038058043 322.59135988319036 300.43649171959703 296.47940722890326C329.57826305861363 270.3674545746162 336.91407610744864 278.47441485860463 396.7380798236677 263.23081295293684C456.5620835398869 247.9872110472691 551.1087660847229 156.87010668648452 587.5917095574489 223.3101180816974C624.0746530301751 289.7501294769103 614.0149674260792 519.1514450288439 571.8562084927532 582.1428676499584 "></path><path d="M568.8325386017041 240.97910322176983C601.6671877271576 300.77511347746145 592.6134706834714 507.2362974742017 554.670587643478 563.9285778332048C516.7277046034847 620.620858192208 457.1219524607743 514.6452290411747 386.70670000973655 513.1020489449846C316.2914475586988 511.55886884879453 240.74714261870292 582.2277060532801 216.67737587849723 556.5213133714926C192.6076091382916 530.8149206897052 251.64776410067844 441.7300828051633 271.1718196567493 389.71136407240556C290.6958752128201 337.69264533964764 284.1652483425224 330.33222084311353 310.3928425476373 306.83146345425513C336.62043675275225 283.3307060653967 343.22266849670376 290.62697032098635 397.064271841301 276.9077286058854C450.90587518589814 263.18848689078436 535.9978894762505 181.18309296607828 568.8325386017041 240.97910322176983C601.6671877271576 300.77511347746145 592.6134706834714 507.2362974742017 554.670587643478 563.9285778332048 "></path><path d="M550.0733523871702 258.6480883618423C579.259707165351 311.8000974780126 571.2119586820743 495.3211499195595 537.4849515354135 545.7142880164511C503.7579443887528 596.1074261133429 450.7750535952325 501.90686686797994 388.183718083199 500.53515122692215C325.59238257116544 499.16343558586414 258.4418892911691 561.9801797676291 237.04654107765293 539.1300529393736C215.65119286413682 516.2799261111181 268.1313306084807 437.0934035470809 285.4860466583214 390.8545424512962C302.8407627081622 344.61568135551147 297.03576104567526 338.0730818030367 320.34917811688854 317.183519679607C343.6625951881019 296.2939575561773 349.5312456271698 302.77952578336806 397.3904486001452 290.58464425883386C445.24965157312045 278.38976273429967 520.8869976089893 205.49607924567198 550.0733523871702 258.6480883618423C579.259707165351 311.8000974780126 571.2119586820743 495.3211499195595 537.4849515354135 545.7142880164511 "></path><path d="M531.3141814314251 276.3170887607038C556.8522418623335 322.82509673735285 549.8104619394664 483.40601762370625 520.2993306861383 527.5000134584866C490.7881994328101 571.5940092932667 444.4281699884798 489.16851995357433 389.6607514154505 487.9682687676486C334.89333284242116 486.7680175817229 276.1366512224243 541.7326687407673 257.4157215355977 521.7388077660437C238.69479184877105 501.7449467913202 284.614912375072 432.4567395477876 299.8002889186826 391.99773608897596C314.98566546229324 351.5387326301643 309.9062890076172 345.8139580217489 330.3055289449288 327.5355911637479C350.7047688822405 309.25722430574694 355.839838016425 314.93209650453883 397.71664061777835 304.2615751705714C439.5934432191318 293.591053836604 505.7761210005169 229.8090807840548 531.3141814314251 276.3170887607038C556.8522418623335 322.82509673735285 549.8104619394664 483.40601762370625 520.2993306861383 527.5000134584866 "></path><path d="M512.5550104756803 293.9860891595653C534.444776559316 333.8500959966931 528.4089651968585 471.4908853278532 503.1137098368629 509.285738900522C477.8184544768674 547.0805924731908 438.08128638172707 476.4301730391686 391.13778474770197 475.4013863083752C344.1942831136768 474.3725995775817 293.83141315367953 521.4851577139054 277.78490199354246 504.34756259271387C261.73839083340533 487.2099674715222 301.09849414166325 427.8200755484943 314.1145311790438 393.14092972665577C327.13056821642436 358.4617839048172 322.7768169695592 353.5548342404611 340.26187977296917 337.8876626478889C357.7469425763791 322.2204910553166 362.14843040568013 327.08466722570967 398.0428326354116 317.938506082309C433.93723486514307 308.79234493890834 490.66524439204466 254.12208232243756 512.5550104756803 293.9860891595653C534.444776559316 333.8500959966931 528.4089651968585 471.4908853278532 503.1137098368629 509.285738900522 "></path><path d="M493.7958395199354 311.6550590408487C512.0373112562985 344.87506473845514 507.00746845425056 459.57572251442195 485.92808898758756 491.0714338249792C464.8487095209247 522.5671451355365 431.73440277497446 463.69179560718476 392.61481807995347 462.83447333152355C353.49523338493253 461.97715105586235 311.5261750849348 501.23761616946547 298.15408245148717 486.9562869018058C284.7819898180396 472.67495763414604 317.5820759082545 423.18338103162284 328.428773439405 394.2840928467574C339.27547097055543 365.3848046618919 335.64734493150115 361.29567994159515 350.21823060100945 348.2397036144516C364.78911627051775 335.1837272873081 368.45702279493526 339.2372074293023 398.3690246530448 331.6154064764684C428.2810265111544 323.9936055236345 475.5543677835724 278.43505334324226 493.7958395199354 311.6550590408487C512.0373112562985 344.87506473845514 507.00746845425056 459.57572251442195 485.92808898758756 491.0714338249792 "></path><path d="M475.03666856419056 329.3240594397102C489.6298459532809 355.90006399779537 485.6059717116426 447.6605902185688 468.74246813831223 472.8571592670146C451.87896456498186 498.0537283154605 425.38751916822173 450.95344869277903 394.09185141220496 450.26759087225014C362.7961836561882 449.58173305172113 329.22093701619 480.9901051426036 318.52326290943193 469.5650417284759C307.82558880267385 458.1399783143481 334.0656576748458 418.5467170323295 342.7430156997662 395.42728648443716C351.42037372468656 372.3078559365448 348.5178728934431 369.0365561603074 360.17458142904974 358.59177509859256C371.8312899646564 348.14699403687774 374.7656151841904 351.3897781504731 398.69521667067806 345.29233738820596C422.6248181571657 339.1948966259389 460.4434911751001 302.7480548816251 475.03666856419056 329.3240594397102C489.6298459532809 355.90006399779537 485.6059717116426 447.6605902185688 468.74246813831223 472.8571592670146 "></path><path d="M456.2775128672347 346.99304457978263C467.2223959090525 366.92504799834654 464.2044902278238 435.7454426639266 451.556862547826 454.642869450261C438.9092348678282 473.5402962365954 419.04065082025807 438.2150865195843 395.5689000032455 437.7006931541876C372.09714918623297 437.18629978879085 346.9157142062343 460.7425788569527 338.89245862616576 452.17378129635694C330.8692030460972 443.6049837357611 350.54925470022613 413.91003777424714 357.0572732189164 396.57046486332786C363.5652917376067 379.23089195240857 361.3884161141741 376.77741712023055 370.1309475158791 368.94383132394444C378.87347891758407 361.11024552765826 381.07422283223457 363.5423336128548 399.02142394710035 358.9692530411545C416.96862506196607 354.39617246945414 445.33262982541686 327.0610411612188 456.2775128672347 346.99304457978263C467.2223959090525 366.92504799834654 464.2044902278238 435.7454426639266 451.556862547826 454.642869450261 "></path><path d="M437.5183419114898 364.6620297198551C444.814930606035 377.95003199889766 442.80299348521584 423.8302951092844 434.37124169855065 436.4285796335073C425.93948991188546 449.02686415773024 412.6937672135054 425.4767243463895 397.045933335497 425.13379543612507C381.3980994574886 424.79086652586057 364.6104761374895 440.4950525713018 359.2616390841105 434.78252086423794C353.9128020307315 429.06998915717406 367.03283646681746 409.27335851616476 371.3715154792776 397.7136432422186C375.7101944917378 386.1539279682724 374.2589440761161 384.5182780801537 380.08729834391943 379.29588754929625C385.91565261172275 374.07349701843884 387.38281522148975 375.6948890752366 399.34761596473356 372.646168694103C411.3124167079774 369.59744831296945 430.2217532169446 351.37402744081254 437.5183419114898 364.6620297198551C444.814930606035 377.95003199889766 442.80299348521584 423.8302951092844 434.37124169855065 436.4285796335073 "></path><path d="M418.7591709557449 382.33101485992756C422.4074653030175 388.97501599944883 421.40149674260795 411.9151475546422 417.1856208492753 418.21428981675365C412.96974495594276 424.5134320788651 406.34688360675267 412.7383621731948 398.5229666677485 412.56689771806253C390.69904972874434 412.3954332629303 382.30523806874476 420.2475262856509 379.63081954205524 417.391260432119C376.9564010153657 414.53499457858703 383.51641823340873 404.6366792580824 385.6857577396388 398.8568216211093C387.8550972458689 393.0769639841362 387.12947203805805 392.25913904007683 390.0436491719597 389.6479437746481C392.9578263058614 387.0367485092194 393.6914076107449 387.8474445376183 399.6738079823668 386.3230843470515C405.6562083539887 384.7987241564847 415.11087660847227 375.68701372040624 418.7591709557449 382.33101485992756C422.4074653030175 388.97501599944883 421.40149674260795 411.9151475546422 417.1856208492753 418.21428981675365 "></path></g></svg>