<svg xmlns="http://www.w3.org/2000/svg" version="1.1" xmlns:xlink="http://www.w3.org/1999/xlink" xmlns:svgjs="http://svgjs.dev/svgjs" viewBox="0 0 800 800" opacity="0.76"><defs><linearGradient x1="50%" y1="0%" x2="50%" y2="100%" id="uundulate-grad"><stop stop-color="#ff7ecb" stop-opacity="1" offset="45%"></stop><stop stop-color="#6a00f4" stop-opacity="1" offset="100%"></stop></linearGradient></defs><g stroke-width="2" stroke="url(#uundulate-grad)" fill="none"><path d="M639.8029293667894 224.94674168774276C673.0881429223177 293.32523322682283 648.3865712142308 480.1183097935092 597.8097256301953 566.3642272449688C547.2328800461598 652.6101446964283 456.9835688706737 661.8364964208251 397.0340705634188 638.927145454749C337.08457225616394 616.017794488673 362.2531464661048 519.1842467091221 310.05213375537176 456.3993426078034C257.8511210446388 393.6144385064847 158.05023129054962 400.68377423397123 146.4692095519011 337.5596057684195C134.88818781325256 274.43543730286774 193.71916878240984 174.11419603795412 254.46322940985942 153.40333397315516C315.207290037309 132.6924719083562 357.76159640596563 223.24259125017915 438.04070056365936 238.1474678573848C518.319804721353 253.05234446459053 606.517715811261 156.56825014866268 639.8029293667894 224.94674168774276C673.0881429223177 293.32523322682283 648.3865712142308 480.1183097935092 597.8097256301953 566.3642272449688 "></path><path d="M625.6968755957305 235.24400205003315C657.0241354126985 299.6002293809321 633.775597334499 475.4054779142839 586.1738603142303 556.5781061038929C538.5721232939615 637.7507342935019 453.63159512879815 646.4343594458753 397.2085378984407 624.8726173601567C340.7854806680831 603.3108752744381 364.47355051273325 512.1734185407432 315.343185608514 453.08174409244316C266.2128207042947 393.9900696441432 172.28257152397543 400.6435620935423 161.38278635818864 341.2325800083172C150.4830011924018 281.821597923092 205.85333622219684 187.40160614434978 263.0242168127376 167.9090300833625C320.1950974032784 148.4164540223752 360.2462092796611 233.6400957558556 435.80301319278465 247.66821491557863C511.35981710590806 261.69633407530165 594.3696157787626 170.88777471913426 625.6968755957305 235.24400205003315C657.0241354126985 299.6002293809321 633.775597334499 475.4054779142839 586.1738603142303 556.5781061038929 "></path><path d="M611.5908218246717 245.5412624123236C640.9601279030792 305.8752255350413 619.164623454767 470.6926460350587 574.5379949982652 546.791984962817C529.9113665417632 622.8913238905754 450.2796213869226 631.0322224709256 397.3830052334624 610.8180892655644C344.48638908000225 590.6039560602032 366.6939545593617 505.1625903723643 320.6342374616562 449.7641455770829C274.57452036395057 394.3657007818017 186.5149117574013 400.60334995311337 176.29636316447613 344.9055542482148C166.07781457155096 289.20775854331623 217.98750366198385 200.6890162507454 271.5852042156158 182.41472619356983C325.1829047692478 164.14043613639421 362.7308221533566 244.03760026153213 433.56532582190994 257.18896197377245C504.39982949046316 270.34032368601277 582.2215157462642 185.20729928960583 611.5908218246717 245.5412624123236C640.9601279030792 305.8752255350413 619.164623454767 470.6926460350587 574.5379949982652 546.791984962817 "></path><path d="M597.4847680536129 255.83849225703585C624.8961203934598 312.1501911715724 604.5536495750353 465.9797836382552 562.9021296823 537.0058333041632C521.2506097895649 608.0318829700709 446.92764764504705 615.6300549783978 397.5574725684842 596.7635306533939C348.18729749192136 577.8970063283901 368.9143586059902 498.1517316864072 325.92528931479836 446.44651654414463C282.9362200236065 394.7413014018821 200.74725199082718 400.5631072951064 191.20993997076368 348.5784979705344C181.6726279507002 296.5938886459623 230.12167110177086 213.97639583956288 280.1461916184941 196.920391786199C330.17071213521723 179.86438773283516 365.2154350270521 254.43507424963047 431.3276384510351 266.70967851438814C497.43984187501815 278.9842827791458 570.0734157137659 199.52679334249933 597.4847680536129 255.83849225703585C624.8961203934598 312.1501911715724 604.5536495750353 465.9797836382552 562.9021296823 537.0058333041632 "></path><path d="M583.378699023765 266.13575261932624C608.8320976250513 318.4251873256816 589.9426604365143 461.26695175903 551.266249107546 527.2197121630873C512.5898377785776 593.1724725671446 443.57565864438243 600.2279180034482 397.73192464471686 582.7090025588018C351.8881906450514 565.1900871141553 371.1347473938297 491.14090351802815 331.21632590915146 443.1289180287845C291.2979044244733 395.1169325395407 214.97957696546393 400.5228951546775 206.12350151826212 352.251472210432C197.2674260710603 303.98004926618654 242.2558232827688 227.2638059459585 288.7071637625832 211.42608789640633C335.1585042423976 195.58836984685416 367.7000326419585 264.832578755307 429.08993582137134 276.23042557258196C490.4798390007842 287.62827238985693 557.9253004224786 213.8463179129709 583.378699023765 266.13575261932624C608.8320976250513 318.4251873256816 589.9426604365143 461.26695175903 551.266249107546 527.2197121630873 "></path><path d="M569.2726757702842 276.4330129816167C592.7681206330102 324.70018347979084 575.3317170743605 456.5541198798047 539.630414309159 517.4335910220115C503.92911154395745 578.3130621642182 440.223715420085 584.8257810284983 397.90642249731684 568.6544744642094C355.5891295745487 552.4831678999203 373.35518195803627 484.13007534964925 336.5074082798718 439.8113195134242C299.65963460170735 395.4925636771992 229.21194771646793 400.48268301424855 221.0371088421278 355.9244464503297C212.86226996778765 311.3662098864108 254.39002124013393 240.5512160523541 297.26818168303953 225.93178400661367C340.1463421259451 211.31235196087323 370.1846760332321 275.2300832609835 426.85227896807476 285.7511726307758C483.5198819029174 296.27226200056805 545.7772309075583 228.16584248344247 569.2726757702842 276.4330129816167C592.7681206330102 324.70018347979084 575.3317170743605 456.5541198798047 539.630414309159 517.4335910220115 "></path><path d="M555.1666219992254 286.73024282632895C576.7041131233909 330.975149116322 560.7207431946288 451.8412574830013 527.994548993194 507.64743936335753C495.2683547917592 563.4536212437138 436.87174167820945 569.4236135359705 398.0808898323386 554.5999158520389C359.2900379864678 539.7762181681073 375.57558600466473 477.1192166636921 341.798460133014 436.49369048048584C308.0213342613632 395.8681642972796 243.44428794989375 400.4424403562415 235.9506856484153 359.59739017264917C228.45708334693688 318.75233998905685 266.52418867992094 253.8385956411716 305.8291690859178 240.43744959924288C345.1341494919145 227.0363035573141 372.66928890692765 285.6275572490819 424.61459159720005 295.2718891713915C476.5598942874724 304.91622109370104 533.62913087506 242.48533653633592 555.1666219992254 286.73024282632895C576.7041131233909 330.975149116322 560.7207431946288 451.8412574830013 527.994548993194 507.64743936335753 "></path><path d="M541.0605377105885 297.02750318861933C560.6400750961934 337.2501452704312 546.1097387973186 447.1284256037761 516.3586531596507 497.8613182222816C486.6075675219828 548.5942108407874 433.51973741875577 554.0214765610208 398.2553266497822 540.5453877574466C362.99091588080876 527.0692989538725 377.7959595337151 470.1083884953132 347.0894814685781 433.1760919651256C316.383003403441 396.2437954349381 257.6765976657415 400.40222821581256 250.8642319371247 363.2703644125469C244.05186620850793 326.1385006092811 278.6583256021299 267.1260057475672 314.39012597121786 254.94314570945016C350.12192634030583 242.76028567133312 375.15387126304506 296.0250617547584 422.3768737087472 304.7926362295853C469.59987615444936 313.56021070441216 521.4810003249835 256.80486110680755 541.0605377105885 297.02750318861933C560.6400750961934 337.2501452704312 546.1097387973186 447.1284256037761 516.3586531596507 497.8613182222816 "></path><path d="M526.9545144571077 307.3247635509098C544.5760981041522 343.5251414245404 531.498795435165 442.41559372455083 504.72281836126376 488.07519708120583C477.94684128736264 533.7348004378609 430.1677941944582 538.619339586071 398.42982450238213 526.4908596628543C366.69185481030604 514.3623797396376 380.01639409792176 463.0975603269342 352.38056383929836 429.85849344976543C324.7447335806751 396.6194265725967 271.9089684167455 400.36201607538374 265.7778392609904 366.9433386524445C259.6467101052353 333.52466122950534 290.792523559495 280.4134158539629 322.9511438916742 269.4488418196575C355.1097642238534 258.4842677853522 377.63851465431867 306.4225662604349 420.1392168554506 314.3133832877791C462.6399190565826 322.2042003151233 509.3329308100633 271.1243856772791 526.9545144571077 307.3247635509098C544.5760981041522 343.5251414245404 531.498795435165 442.41559372455083 504.72281836126376 488.07519708120583 "></path><path d="M512.8484301684707 317.62199339562204C528.5120600769546 349.8001070610715 516.887791037855 437.7027313277474 493.0869225277206 478.2890454225519C469.28605401758614 518.8753595173564 426.81578993500455 523.2171720935431 398.6042613198258 512.4363010506838C370.392732704647 501.6554300078245 382.2367676269721 456.086701640977 357.67158517486246 426.54086441682705C333.1064027227528 396.99502719267707 286.1412781325932 400.3217734173766 280.69138554969976 370.61628237476407C275.24149296680633 340.91079133215146 302.9266604817039 293.70079544278036 331.5121007769743 283.9545074122867C360.09754107224467 274.20821938179307 380.123097010436 316.8200402485333 417.9014989669978 323.83409982839476C455.67990092355944 330.8481594082563 497.1848002599868 285.44387973017257 512.8484301684707 317.62199339562204C528.5120600769546 349.8001070610715 516.887791037855 437.7027313277474 493.0869225277206 478.2890454225519 "></path><path d="M498.74237639741193 327.91925375791243C512.4480525673354 356.0751032151807 502.2768171581231 432.9898994485221 481.4510572117555 468.5029242814761C460.6252972653879 504.01594911443 423.463816193129 507.8150351185934 398.77872865484755 498.3817729560915C374.0936411165661 488.94851079358955 384.45717167360056 449.0758734725981 362.9626370280047 423.22326590146685C341.4681023824087 397.3706583303356 300.37361836601906 400.28156127694774 295.6049623559873 374.2892566146617C290.83630634595556 348.2969519523757 315.0608279214909 306.988205549176 340.0730881798525 298.46020352249406C365.08534843821406 289.9322014958121 382.6077098841315 327.21754475420977 415.663811596123 333.3548468865886C448.71991330811454 339.49214901896744 485.0367002274884 299.7634043006442 498.74237639741193 327.91925375791243C512.4480525673354 356.0751032151807 502.2768171581231 432.9898994485221 481.4510572117555 468.5029242814761 "></path><path d="M484.63632262635304 338.2165141202029C496.3840450577161 362.35009936929 487.6658432783912 428.2770675692969 469.81519189579046 458.71680314040026C451.96454051318966 489.1565387115036 420.11184245125344 492.4128981436437 398.95319598986936 484.32724486149925C377.7945495284853 476.2415915793547 386.6775757202291 442.06504530421915 368.25368888114684 419.90566738610664C349.8298020420646 397.74628946799413 314.6059585994449 400.2413491365188 310.5185391622748 377.9622308545594C306.4311197251048 355.6831125725999 327.1949953612779 320.2756156555716 348.6340755827307 312.96589963270134C370.0731558041835 305.65618360983115 385.092322757827 337.6150492598863 413.4261242252483 342.8755939447824C441.75992569266964 348.13613862967856 472.8886001949901 314.08292887111577 484.63632262635304 338.2165141202029C496.3840450577161 362.35009936929 487.6658432783912 428.2770675692969 469.81519189579046 458.71680314040026 "></path><path d="M470.5302535965052 348.51374396491514C480.32002228930764 368.62506500582106 473.05485413987026 423.56420517249353 458.17931132103627 448.9306514817463C443.30376850220233 474.29709779099915 416.7598534505888 477.01073065111586 399.12764806610204 470.2726862493288C381.4954426816153 463.5346418475417 388.8979645080685 435.05418661826207 373.54472547549994 416.58803835316826C358.1914864429315 398.1218900880745 328.8382835740817 400.20110647851175 325.4321007097733 381.6351745768789C322.0259178454649 363.069242675246 339.32914754227585 333.56299524438907 357.1950477268199 327.47156522533055C375.0609479113639 321.38013520627203 387.57692037273347 348.0125232479847 411.18842159558454 352.3963104853981C434.7999228184356 356.78009772281155 460.7404849037027 328.4024229240092 470.5302535965052 348.51374396491514C480.32002228930764 368.62506500582106 473.05485413987026 423.56420517249353 458.17931132103627 448.9306514817463 "></path><path d="M456.42421508423536 358.8110043272056C464.2560300384773 374.90006115993026 458.4438955189275 418.85137329326824 446.5434612638603 439.1445303406705C434.64302700879307 459.43768738807273 413.4078949675023 461.6085936761661 399.3021306599129 456.21815815473644C385.1963663523235 450.8277226333068 391.11838381348605 428.04335844988304 378.83579258743123 413.27043983780806C366.5532013613764 398.49752122573307 343.0706390662966 400.16089433808287 340.3456927748499 385.30814881677657C337.6207464834032 370.45540329547026 351.4633302408519 346.8504053507847 365.75605038848715 341.9772613355379C380.04877053612233 337.1041173202911 390.061548505218 358.41002775366115 408.9507494834989 361.9170575435919C427.8399504617797 365.42408733352266 448.5924001299934 342.72194749448084 456.42421508423536 358.8110043272056C464.2560300384773 374.90006115993026 458.4438955189275 418.85137329326824 446.5434612638603 439.1445303406705 "></path><path d="M442.3181613131765 369.1082494307069C448.19202252885805 381.17504205525046 443.8329216391956 414.1385261552539 434.90759594789523 429.3583939408056C425.9822702565948 444.57826172635725 410.0559212256267 446.2064414424273 399.47659799493465 442.1636148013551C388.89727476424264 438.1207881602828 393.3387878601145 421.0325150227151 384.12684444057345 409.9528260636588C374.9149010210323 398.8731371046025 357.30297929972244 400.1206669388649 355.2592695811374 388.98110779788516C353.21555986255237 377.84154865690545 363.597497680639 360.1378001983913 374.31703779136535 356.48294218695617C385.0365779020918 352.82808417552104 392.5461613789135 368.8075170005486 406.71306211262413 371.43778934299667C420.8799628463348 374.0680616854447 436.44430009749505 357.04145680616335 442.3181613131765 369.1082494307069C448.19202252885805 381.17504205525046 443.8329216391956 414.1385261552539 434.90759594789523 429.3583939408056 "></path><path d="M428.2121075421177 379.40549453420823C432.12801501923866 387.4500229505706 429.2219477594637 409.4256790172396 423.27173063193015 419.5722575409407C417.32151350439653 429.71883606464183 406.7039474837511 430.80428920868854 399.65106532995645 428.1090714479737C392.59818317616174 425.4138536872589 395.559191906743 414.021671595547 389.4178962937156 406.6352122895095C383.2766006806882 399.248752983472 371.5353195331483 400.0804395396469 370.17284638742495 392.65406677899375C368.8103732417016 385.22769401834057 375.731665120426 373.42519504599784 382.87802519424355 370.9886230383744C390.02438526806117 368.552051030751 395.030774252609 379.2050062474361 404.4753747417494 380.9585211424014C413.91997523088986 382.71203603736683 424.2962000649967 371.36096611784586 428.2121075421177 379.40549453420823C432.12801501923866 387.4500229505706 429.2219477594637 409.4256790172396 423.27173063193015 419.5722575409407 "></path><path d="M414.10605377105884 389.7027548964987C416.06400750961933 393.72501910467986 414.6109738797319 404.71284713801435 411.6358653159651 409.7861363998649C408.66075675219827 414.8594256617155 403.35197374187555 415.4021522337388 399.8255326649782 414.0545433533814C396.2990915880809 412.706934473024 397.77959595337154 407.010843427168 394.7089481468578 403.31761377414927C391.6383003403441 399.62438412113056 385.7676597665741 400.040227399218 385.08642319371245 396.3270410188914C384.40518662085077 392.6138546385648 387.865832560213 386.71260515239345 391.4390125971218 385.4943191485817C395.0121926340306 384.27603314477005 397.5153871263045 389.60251075311254 402.2376873708747 390.47926820059524C406.95998761544496 391.35602564807795 412.14810003249835 385.6804906883175 414.10605377105884 389.7027548964987C416.06400750961933 393.72501910467986 414.6109738797319 404.71284713801435 411.6358653159651 409.7861363998649 "></path></g></svg>